<svg width="20" height="21" viewBox="0 0 20 21" fill="none" xmlns="http://www.w3.org/2000/svg">
<path d="M0.00401338 20.5L1.35601 15.532C0.465151 14.0049 -0.00289063 12.268 1.34322e-05 10.5C1.34322e-05 4.977 4.47701 0.5 10 0.5C15.523 0.5 20 4.977 20 10.5C20 16.023 15.523 20.5 10 20.5C8.23279 20.5029 6.49667 20.0352 4.97001 19.145L0.00401338 20.5ZM6.39101 5.808C6.26188 5.81602 6.13569 5.85003 6.02001 5.908C5.91153 5.96943 5.81251 6.04622 5.72601 6.136C5.60601 6.249 5.53801 6.347 5.46501 6.442C5.09542 6.923 4.89662 7.51342 4.90001 8.12C4.90201 8.61 5.03001 9.087 5.23001 9.533C5.63901 10.435 6.31201 11.39 7.20101 12.275C7.41501 12.488 7.62401 12.702 7.84901 12.901C8.9524 13.8725 10.2673 14.573 11.689 14.947L12.258 15.034C12.443 15.044 12.628 15.03 12.814 15.021C13.1053 15.006 13.3896 14.9271 13.647 14.79C13.813 14.702 13.891 14.658 14.03 14.57C14.03 14.57 14.073 14.542 14.155 14.48C14.29 14.38 14.373 14.309 14.485 14.192C14.568 14.106 14.64 14.005 14.695 13.89C14.773 13.727 14.851 13.416 14.883 13.157C14.907 12.959 14.9 12.851 14.897 12.784C14.893 12.677 14.804 12.566 14.707 12.519L14.125 12.258C14.125 12.258 13.255 11.879 12.724 11.637C12.668 11.6126 12.608 11.5987 12.547 11.596C12.4786 11.589 12.4095 11.5967 12.3443 11.6186C12.2791 11.6405 12.2193 11.6761 12.169 11.723V11.721C12.164 11.721 12.097 11.778 11.374 12.654C11.3325 12.7098 11.2754 12.7519 11.2098 12.7751C11.1443 12.7982 11.0733 12.8013 11.006 12.784C10.9409 12.7666 10.877 12.7445 10.815 12.718C10.691 12.666 10.648 12.646 10.563 12.609L10.558 12.607C9.98592 12.3572 9.45624 12.0198 8.98801 11.607C8.86201 11.497 8.74501 11.377 8.62501 11.261C8.23159 10.8842 7.88873 10.458 7.60501 9.993L7.54601 9.898C7.50364 9.83416 7.46937 9.7653 7.44401 9.693C7.40601 9.546 7.50501 9.428 7.50501 9.428C7.50501 9.428 7.74801 9.162 7.86101 9.018C7.9551 8.89832 8.04289 8.77382 8.12401 8.645C8.24201 8.455 8.27901 8.26 8.21701 8.109C7.93701 7.425 7.64701 6.744 7.34901 6.068C7.29001 5.934 7.11501 5.838 6.95601 5.819C6.90201 5.813 6.84801 5.807 6.79401 5.803C6.65972 5.79633 6.52515 5.79766 6.39101 5.807V5.808Z" fill="#1D1D1D"/>
</svg>
