<svg width="19" height="19" viewBox="0 0 19 19" fill="none" xmlns="http://www.w3.org/2000/svg">
<path opacity="0.5" d="M18.0234 13.92V17.456C18.0236 17.7092 17.9276 17.953 17.755 18.1382C17.5824 18.3234 17.346 18.4363 17.0934 18.454C16.6564 18.484 16.2994 18.5 16.0234 18.5C7.18644 18.5 0.0234375 11.337 0.0234375 2.5C0.0234375 2.224 0.0384375 1.867 0.0694375 1.43C0.0871599 1.17744 0.200019 0.941011 0.385241 0.768409C0.570463 0.595807 0.81426 0.499886 1.06744 0.5H4.60344C4.72748 0.499875 4.84713 0.545859 4.93917 0.62902C5.0312 0.712182 5.08903 0.826583 5.10144 0.95C5.12444 1.18 5.14544 1.363 5.16544 1.502C5.36417 2.88892 5.77144 4.23783 6.37344 5.503C6.46844 5.703 6.40644 5.942 6.22644 6.07L4.06844 7.612C5.38789 10.6865 7.83799 13.1365 10.9124 14.456L12.4524 12.302C12.5154 12.214 12.6072 12.1509 12.7119 12.1237C12.8166 12.0964 12.9276 12.1068 13.0254 12.153C14.2905 12.7539 15.639 13.1601 17.0254 13.358C17.1644 13.378 17.3474 13.4 17.5754 13.422C17.6987 13.4346 17.8128 13.4926 17.8958 13.5846C17.9787 13.6766 18.0246 13.7961 18.0244 13.92H18.0234Z" fill="#1D1D1D"/>
</svg>
