<svg width="21" height="19" viewBox="0 0 21 19" fill="none" xmlns="http://www.w3.org/2000/svg">
<path d="M1.02344 0.5H19.0234C19.2887 0.5 19.543 0.605357 19.7305 0.792893C19.9181 0.98043 20.0234 1.23478 20.0234 1.5V17.5C20.0234 17.7652 19.9181 18.0196 19.7305 18.2071C19.543 18.3946 19.2887 18.5 19.0234 18.5H1.02344C0.758221 18.5 0.503867 18.3946 0.316331 18.2071C0.128794 18.0196 0.0234375 17.7652 0.0234375 17.5V1.5C0.0234375 1.23478 0.128794 0.98043 0.316331 0.792893C0.503867 0.605357 0.758221 0.5 1.02344 0.5ZM10.0834 9.183L3.67144 3.738L2.37644 5.262L10.0964 11.817L17.6774 5.257L16.3694 3.744L10.0844 9.183H10.0834Z" fill="#1D1D1D"/>
</svg>
