<svg width="24" height="25" viewBox="0 0 24 25" fill="none" xmlns="http://www.w3.org/2000/svg">
<g clip-path="url(#clip0_0_122)">
<path d="M2 6V4.493C2.00183 4.23038 2.1069 3.97902 2.29251 3.79322C2.47813 3.60742 2.72938 3.50209 2.992 3.5H21.008C21.556 3.5 22 3.945 22 4.493V20.507C21.9982 20.7696 21.8931 21.021 21.7075 21.2068C21.5219 21.3926 21.2706 21.4979 21.008 21.5H2.992C2.72881 21.4997 2.4765 21.395 2.29049 21.2088C2.10448 21.0226 2 20.7702 2 20.507V19.5H20V7.8L12 15L2 6ZM0 10.5H5V12.5H0V10.5ZM0 15.5H8V17.5H0V15.5Z" fill="white"/>
</g>
<defs>
<clipPath id="clip0_0_122">
<rect width="24" height="24" fill="white" transform="translate(0 0.5)"/>
</clipPath>
</defs>
</svg>
