<svg width="24" height="24" viewBox="0 0 24 24" fill="none" xmlns="http://www.w3.org/2000/svg">
<path d="M12.001 2.45026C14.8197 -0.137018 19.1756 -0.0511436 21.8912 2.72997C24.6055 5.51231 24.6991 9.94344 22.1744 12.8337L11.9986 23.2516L1.82517 12.8337C-0.69958 9.94344 -0.604781 5.50495 2.10837 2.72997C4.82632 -0.0474632 9.17384 -0.140699 12.001 2.45026V2.45026ZM20.192 4.46341C18.3921 2.62079 15.4881 2.54595 13.6042 4.27571L12.0022 5.7454L10.399 4.27694C8.50905 2.54472 5.6111 2.62078 3.80634 4.46586C2.01837 6.29377 1.92837 9.21964 3.57594 11.153L11.9998 19.7785L20.4236 11.1543C22.0724 9.21964 21.9824 6.29745 20.192 4.46341V4.46341Z" fill="#1D1D1D"/>
</svg>
